# xmcd CD database file
#
# Track frame offsets:
#	150
#	16296
#	33379
#	46887
#	63015
#	74800
#	88884
#	107278
#	120848
#	139878
#	153397
#	165980
#	183037
#	197195
#	210696
#	229248
#	243732
#
# Disc length: 3477 seconds
#
# Revision: 0
# Processed by: cddbd v1.5.2PL0 Copyright (c) Steve Scherf et al.
# Submitted via: CDex 1.70beta2
#
DISCID=e20d9311
DTITLE=Rick Nelson - The last time around CD 7
DYEAR=2010
DGENRE=Country
TTITLE0=Tired of toeing the line
TTITLE1=I can't take it no more
TTITLE2=Don't look at me
TTITLE3=It hasn't happended yet
TTITLE4=Almost saturday night
TTITLE5=Radion girl
TTITLE6=Little miss american dream
TTITLE7=Rave on
TTITLE8=Do the best you can
TTITLE9=Believe what you say
TTITLE10=back to schooldays
TTITLE11=The loser babe is you
TTITLE12=Call it what you want
TTITLE13=beleive what you say (Single Version)
TTITLE14=Doll hospital
TTITLE15=No fair falling in live (Single Version)
TTITLE16=Give 'em my number (Single Version)
EXTD=YEAR: 2010
EXTT0=
EXTT1=
EXTT2=
EXTT3=
EXTT4=
EXTT5=
EXTT6=
EXTT7=
EXTT8=
EXTT9=
EXTT10=
EXTT11=
EXTT12=
EXTT13=
EXTT14=
EXTT15=
EXTT16=
PLAYORDER=
